<svg width="24" height="24" viewBox="0 0 24 24" fill="none" xmlns="http://www.w3.org/2000/svg">
<g id="Icon/Solid/bell">
<g id="Icon">
<path d="M11.9996 2.3999C8.02319 2.3999 4.79964 5.62345 4.79964 9.5999V13.9028L3.95112 14.7514C3.60792 15.0946 3.50525 15.6107 3.69099 16.0591C3.87673 16.5075 4.31429 16.7999 4.79964 16.7999H19.1996C19.685 16.7999 20.1226 16.5075 20.3083 16.0591C20.494 15.6107 20.3914 15.0946 20.0482 14.7514L19.1996 13.9028V9.5999C19.1996 5.62345 15.9761 2.3999 11.9996 2.3999Z" fill="#F7F7F7"/>
<path d="M11.9996 21.5999C10.0114 21.5999 8.39961 19.9881 8.39961 17.9999H15.5996C15.5996 19.9881 13.9878 21.5999 11.9996 21.5999Z" fill="#F7F7F7"/>
</g>
<path id="Element/Misc/Online Status" d="M21.8 5.4C21.8 7.83005 19.8301 9.8 17.4 9.8C14.9699 9.8 13 7.83005 13 5.4C13 2.96995 14.9699 1 17.4 1C19.8301 1 21.8 2.96995 21.8 5.4Z" fill="#E42B2B" stroke="#F7F7F7" stroke-width="2"/>
</g>
</svg>
