<svg width="24" height="24" viewBox="0 0 24 24" fill="none" xmlns="http://www.w3.org/2000/svg">
<g id="Icon/Solid/menu">
<g id="Icon">
<path fill-rule="evenodd" clip-rule="evenodd" d="M3.6001 5.9998C3.6001 5.33706 4.13736 4.7998 4.8001 4.7998H19.2001C19.8628 4.7998 20.4001 5.33706 20.4001 5.9998C20.4001 6.66255 19.8628 7.1998 19.2001 7.1998H4.8001C4.13736 7.1998 3.6001 6.66255 3.6001 5.9998Z" fill="#E5E1A8"/>
<path fill-rule="evenodd" clip-rule="evenodd" d="M3.6001 11.9998C3.6001 11.3371 4.13736 10.7998 4.8001 10.7998H19.2001C19.8628 10.7998 20.4001 11.3371 20.4001 11.9998C20.4001 12.6625 19.8628 13.1998 19.2001 13.1998H4.8001C4.13736 13.1998 3.6001 12.6625 3.6001 11.9998Z" fill="#E5E1A8"/>
<path fill-rule="evenodd" clip-rule="evenodd" d="M3.6001 17.9998C3.6001 17.3371 4.13736 16.7998 4.8001 16.7998H19.2001C19.8628 16.7998 20.4001 17.3371 20.4001 17.9998C20.4001 18.6625 19.8628 19.1998 19.2001 19.1998H4.8001C4.13736 19.1998 3.6001 18.6625 3.6001 17.9998Z" fill="#E5E1A8"/>
</g>
</g>
</svg>
