<svg width="24" height="24" viewBox="0 0 24 24" fill="none" xmlns="http://www.w3.org/2000/svg">
<g id="Telegram">
<g id="Vector">
<path d="M19.7855 4.071C18.3958 3.38144 17.1906 3.30479 15.6326 3.01382C15.6042 3.00821 14.609 2.98575 14.5943 3.01382C14.4027 3.38245 14.7429 3.69301 14.5943 4.071C12.9186 3.79968 11.0446 3.79968 9.40324 4.071C9.25455 3.68461 9.59575 3.38245 9.40324 3.01382C9.38862 2.98669 8.39339 3.00914 8.36502 3.01382C6.80782 3.30387 5.60262 3.38051 4.21213 4.071C4.20008 4.07661 4.21898 4.05885 4.21213 4.071C1.3856 8.63777 0.717617 13.4151 1.09746 17.8145C1.08199 17.8015 1.09918 17.8359 1.09746 17.8145C2.96233 19.2956 4.51567 20.39 6.28857 20.986C6.27051 21.0113 6.31695 20.9954 6.28857 20.986C6.70795 20.3667 8.04449 19.5584 8.36502 18.8717C8.38393 18.8315 7.36546 18.8876 7.32679 18.8717C6.73382 18.6284 6.83171 18.1512 6.28857 17.8145C6.24561 17.7873 6.24905 17.8463 6.28857 17.8145C6.17943 17.9117 6.40287 17.7218 6.28857 17.8145C6.26536 17.8032 6.30832 17.7966 6.28857 17.8145C9.85669 19.5762 14.183 19.5762 17.709 17.8145C17.6884 17.7967 17.7322 17.8023 17.709 17.8145C17.5939 17.7218 17.8181 17.9118 17.709 17.8145C17.7486 17.8463 17.752 17.7873 17.709 17.8145C17.1659 18.1577 17.2647 18.6294 16.6708 18.8717C16.6322 18.8876 15.6137 18.8315 15.6326 18.8717C15.96 19.5575 17.2974 20.3666 17.709 20.986C17.6807 20.9954 17.7262 21.0121 17.709 20.986C19.4905 20.39 21.0352 19.2956 22.9001 17.8145C22.8984 17.8361 22.9164 17.8015 22.9001 17.8145C23.3547 12.7285 22.2476 7.98753 19.7855 4.071C19.7975 4.07661 19.7794 4.05792 19.7855 4.071ZM8.36502 15.7001C7.29076 15.7001 6.28857 13.8385 6.28857 12.5285C6.28857 11.2187 7.2736 10.4141 8.36502 10.4141C9.465 10.4141 10.4586 11.228 10.4415 12.5285C10.4415 13.8385 9.45641 15.7001 8.36502 15.7001ZM15.6326 15.7001C14.5583 15.7001 13.5561 13.8385 13.5561 12.5285C13.5561 11.2187 14.5412 10.4141 15.6326 10.4141C16.7326 10.4141 17.7261 11.228 17.709 12.5285C17.709 13.8385 16.7326 15.7001 15.6326 15.7001Z" fill="#E5E1A8"/>
</g>
</g>
</svg>
