<svg width="20" height="20" viewBox="0 0 20 20" fill="none" xmlns="http://www.w3.org/2000/svg">
<path opacity="0.2" d="M19.9453 10.0002C19.9453 15.494 15.4918 19.9476 9.99809 19.9476C4.50432 19.9476 0.0507812 15.494 0.0507812 10.0002C0.0507812 4.50651 4.50432 0.0529785 9.99809 0.0529785C15.4917 0.0529785 19.9453 4.50651 19.9453 10.0002Z" fill="#505050"/>
<g opacity="0.8">
<path d="M9.96671 5.38452L9.90527 5.59335V11.6532L9.96671 11.7145L12.7796 10.0518L9.96671 5.38452Z" fill="white"/>
<path d="M9.96721 5.38452L7.1543 10.0518L9.96721 11.7146V8.77329V5.38452Z" fill="white"/>
<path d="M9.96724 12.6296L9.93262 12.6718V14.8305L9.96724 14.9316L12.7818 10.9678L9.96724 12.6296Z" fill="white"/>
<path d="M9.96721 14.9316V12.6296L7.1543 10.9678L9.96721 14.9316Z" fill="white"/>
<path d="M9.9668 11.7144L12.7797 10.0517L9.9668 8.77319V11.7144Z" fill="white"/>
<path d="M7.1543 10.0517L9.96717 11.7144V8.77319L7.1543 10.0517Z" fill="white"/>
</g>
</svg>
