<svg width="24" height="24" viewBox="0 0 24 24" fill="none" xmlns="http://www.w3.org/2000/svg">
<g id="Telegram">
<path id="Vector" d="M16.1139 9.29103C16.6659 8.73903 17.2139 7.45103 14.9139 9.01503C12.7654 10.4937 10.6023 11.9511 8.42492 13.387C8.09336 13.537 7.73491 13.6183 7.37112 13.6262C7.00732 13.6341 6.64568 13.5684 6.30792 13.433C4.92792 13.019 3.31692 12.467 3.31692 12.467C3.31692 12.467 2.21692 11.776 4.09992 11.04C4.09992 11.04 12.0609 7.77303 14.8219 6.62203C15.8799 6.16203 19.4689 4.69003 19.4689 4.69003C19.4689 4.69003 21.1259 4.04503 20.9879 5.61003C20.9419 6.25403 20.5739 8.51003 20.2059 10.948C19.6529 14.399 19.0549 18.173 19.0549 18.173C19.0549 18.173 18.9629 19.231 18.1809 19.415C17.3438 19.4009 16.535 19.1097 15.8809 18.587C15.6969 18.449 12.4299 16.378 11.2329 15.366C11.1112 15.2835 11.0122 15.1716 10.9454 15.0406C10.8785 14.9096 10.8458 14.7639 10.8504 14.6169C10.855 14.4699 10.8967 14.3264 10.9716 14.1999C11.0465 14.0733 11.1522 13.9678 11.2789 13.893C12.9207 12.391 14.5326 10.8567 16.1139 9.29103Z" fill="#E5E1A8"/>
</g>
</svg>
