<svg width="20" height="20" viewBox="0 0 20 20" fill="none" xmlns="http://www.w3.org/2000/svg">
<g id="Icon/Outline/share">
<path id="Icon" d="M7.23656 11.1183C7.40513 10.7818 7.5 10.402 7.5 10C7.5 9.59803 7.40513 9.21821 7.23656 8.88172M7.23656 11.1183C6.82611 11.9376 5.97874 12.5 5 12.5C3.61929 12.5 2.5 11.3807 2.5 10C2.5 8.61929 3.61929 7.5 5 7.5C5.97874 7.5 6.82611 8.06243 7.23656 8.88172M7.23656 11.1183L12.7634 13.8817M7.23656 8.88172L12.7634 6.11828M12.7634 6.11828C13.1739 6.93757 14.0213 7.5 15 7.5C16.3807 7.5 17.5 6.38071 17.5 5C17.5 3.61929 16.3807 2.5 15 2.5C13.6193 2.5 12.5 3.61929 12.5 5C12.5 5.40197 12.5949 5.78179 12.7634 6.11828ZM12.7634 13.8817C12.5949 14.2182 12.5 14.598 12.5 15C12.5 16.3807 13.6193 17.5 15 17.5C16.3807 17.5 17.5 16.3807 17.5 15C17.5 13.6193 16.3807 12.5 15 12.5C14.0213 12.5 13.1739 13.0624 12.7634 13.8817Z" stroke="#F7F7F7" stroke-width="2" stroke-linecap="round" stroke-linejoin="round"/>
</g>
</svg>
